<?xml version="1.0" encoding="utf-8"?>
<!-- Generator: Adobe Illustrator 27.8.1, SVG Export Plug-In . SVG Version: 6.00 Build 0)  -->
<svg version="1.1" id="Layer_1" width="250" height="52"  xmlns="http://www.w3.org/2000/svg" xmlns:xlink="http://www.w3.org/1999/xlink" x="0px" y="0px"
	 viewBox="0 0 250 52" style="enable-background:new 0 0 250 52;" xml:space="preserve">
<style type="text/css">
	.st0{fill:#FFFFFF;}
</style>
<path class="st0" d="M61.2,21.2l-3.8-3l0,0l3.5-0.7c0.2,0,0.4-0.2,0.6-0.3c0.1-0.2,0.2-0.4,0.2-0.6v-3c0-0.3-0.1-0.5-0.3-0.7
	c-0.2-0.2-0.4-0.3-0.7-0.3h-5.1c-0.3,0-0.5,0.1-0.7,0.3c-0.2,0.2-0.3,0.4-0.3,0.7v1.7l-0.1-0.1c-0.1-0.2-0.2-0.3-0.3-0.4
	c-0.6-0.8-1.1-1.6-1.4-2.3l-1.7-3.7c-1.1-2.4-4-4.2-6.6-4.2H20.2c-2.6,0-5.6,1.8-6.6,4.2l-1.7,3.7c-0.3,0.7-0.8,1.5-1.4,2.3
	c-0.1,0.1-0.3,0.3-0.3,0.4l-0.1,0.1v-1.7c0-0.3-0.1-0.5-0.3-0.7c-0.2-0.2-0.4-0.3-0.7-0.3H4c-0.3,0-0.5,0.1-0.7,0.3
	C3.1,13,3,13.3,3,13.5v3c0,0.5,0.3,0.9,0.8,1l3.5,0.7l0,0l-3.8,3c-2,1.6-3.5,4.7-3.5,7.2v16.9c0,1.6,1.4,3,3,3h8.1c1.7,0,3-1.3,3-3
	v-2h36.4v2c0,1.6,1.4,3,3,3h8.1c1.7,0,3-1.3,3-3V28.4C64.8,25.9,63.2,22.8,61.2,21.2z M52,41.4l-2.3-2.3c-1-1-2.8-1.7-4.2-1.7H18.7
	c-1.4,0-3.2,0.7-4.2,1.7l-2.3,2.3H5.1c-1.7,0-3-1.3-3-3v-5h1v1c0,2.2,1.8,4,4,4h3c0.3,0,0.5-0.1,0.7-0.3c0.2-0.2,0.3-0.4,0.3-0.7
	c0-0.3-0.1-0.5-0.3-0.7c-0.2-0.2-0.4-0.3-0.7-0.3h-3c-1.1,0-2-0.9-2-2v-1h2c0.8,0,2.1,0.5,2.7,1.1c0.1,0.1,0.2,0.2,0.3,0.2
	c0.1,0.1,0.3,0.1,0.4,0.1c0.1,0,0.3,0,0.4-0.1c0.1-0.1,0.2-0.1,0.3-0.2c0.1-0.1,0.2-0.2,0.2-0.3c0.1-0.1,0.1-0.3,0.1-0.4
	s0-0.3-0.1-0.4c-0.1-0.1-0.1-0.2-0.2-0.3c-1-1-2.8-1.7-4.2-1.7H2v-3c0-0.4,0.1-0.7,0.1-1.1c0.6,0.7,1.6,1.1,2.9,1.1h8.1
	c0.3,0,0.5-0.1,0.7-0.3l1.3-1.3l1.3,1.3c0.1,0.1,0.2,0.2,0.3,0.2c0.1,0.1,0.3,0.1,0.4,0.1h11.7l2.7,2.7c0.1,0.1,0.2,0.2,0.3,0.2
	c0.1,0.1,0.3,0.1,0.4,0.1s0.3,0,0.4-0.1c0.1-0.1,0.2-0.1,0.3-0.2l2.7-2.7h11.7c0.3,0,0.5-0.1,0.7-0.3l1.3-1.3l1.3,1.3
	c0.1,0.1,0.2,0.2,0.3,0.2c0.1,0.1,0.3,0.1,0.4,0.1h8.1c1.3,0,2.3-0.5,2.9-1.1c0.1,0.4,0.1,0.8,0.1,1.1v3h-5.1
	c-1.4,0-3.2,0.7-4.2,1.7c-0.1,0.1-0.2,0.2-0.2,0.3c-0.1,0.1-0.1,0.3-0.1,0.4s0,0.3,0.1,0.4c0.1,0.1,0.1,0.2,0.2,0.3
	c0.1,0.1,0.2,0.2,0.3,0.2c0.1,0,0.3,0.1,0.4,0.1s0.3,0,0.4-0.1c0.1,0,0.2-0.1,0.3-0.2c0.6-0.6,1.9-1.1,2.7-1.1h2v1c0,1.1-0.9,2-2,2
	h-3c-0.3,0-0.5,0.1-0.7,0.3c-0.2,0.2-0.3,0.4-0.3,0.7c0,0.3,0.1,0.5,0.3,0.7c0.2,0.2,0.4,0.3,0.7,0.3h3c2.2,0,4-1.8,4-4v-1h1v5
	c0,1.6-1.4,3-3,3H52z M49.2,41.4H15.1l0.9-0.9c0.6-0.6,1.9-1.1,2.7-1.1h26.8c0.8,0,2.1,0.5,2.7,1.1L49.2,41.4z M11.7,16.5h41.4
	c1,1.3,2.1,2.5,3.1,3.3l1.2,1l-7.2,2.8l0,0c-0.1,0.1-0.2,0.1-0.3,0.2l-1,1l-1.7,1.7H35.4c-0.1,0-0.3,0-0.4,0.1
	c-0.1,0-0.2,0.1-0.3,0.2L32.4,29l-2.3-2.3c-0.1-0.1-0.2-0.2-0.3-0.2c-0.1-0.1-0.3-0.1-0.4-0.1H17.6l-1.7-1.7l-1-1
	c-0.1-0.1-0.2-0.2-0.3-0.2l0,0l-7.2-2.8l1.2-1C9.6,19,10.7,17.8,11.7,16.5z M61.7,24.9c-0.2,1-0.9,1.6-2,1.6H52l-1-1l0.1-0.1l8-3.2
	l0.8,0.6C60.6,23.3,61.2,24,61.7,24.9z M56.7,14.5h3v1.2l-3,0.6V14.5z M13.7,13.3l1.7-3.7c0.8-1.6,3-3,4.8-3h24.3c1.8,0,4,1.4,4.8,3
	l1.7,3.7c0.2,0.4,0.4,0.8,0.7,1.2H13.1C13.3,14.1,13.6,13.7,13.7,13.3z M5.1,14.5h3v1.8l-3-0.6V14.5z M4.8,22.8l0.8-0.6l8,3.2
	l0.1,0.1l-1,1H5.1c-1.1,0-1.8-0.5-2-1.6C3.6,24,4.2,23.3,4.8,22.8z M11.1,46.4H3c-0.6,0-1-0.4-1-1v-3c0.9,0.7,1.9,1,3,1h7.1v2
	C12.1,45.9,11.7,46.4,11.1,46.4z M61.7,46.4h-8.1c-0.6,0-1-0.4-1-1v-2h7.1c1.1,0,2.2-0.4,3-1v3C62.8,45.9,62.3,46.4,61.7,46.4z"/>
<g>
	<path class="st0" d="M83.9,44.1c-2-1.1-3.5-2.7-4.6-4.8c-1.1-2.1-1.6-4.5-1.6-7.4V21.8c0-2.8,0.5-5.3,1.6-7.4
		c1.1-2.1,2.6-3.7,4.6-4.8c2-1.1,4.3-1.7,7-1.7c2.2,0,4.2,0.5,6,1.4c1.8,0.9,3.3,2.3,4.5,4.1s2,3.9,2.5,6.3h-6.3
		c-0.3-1.2-0.8-2.2-1.4-3.1c-0.7-0.9-1.4-1.6-2.4-2C92.9,14.2,92,14,90.9,14c-1.4,0-2.6,0.3-3.7,1c-1,0.6-1.8,1.5-2.4,2.7
		c-0.6,1.2-0.8,2.6-0.8,4.1v10.2c0,1.6,0.3,3,0.8,4.1c0.6,1.2,1.4,2.1,2.4,2.7c1,0.6,2.2,0.9,3.7,0.9c1.1,0,2.1-0.2,3-0.7
		c0.9-0.5,1.7-1.1,2.4-2s1.1-1.9,1.4-3.2h6.3c-0.5,2.4-1.3,4.6-2.5,6.3s-2.7,3.2-4.5,4.1c-1.8,1-3.8,1.4-6,1.4
		C88.2,45.7,85.9,45.2,83.9,44.1z"/>
	<path class="st0" d="M116.3,8.4h4.4l13.9,37h-6.5l-9.6-27.6L109,45.3h-6.5L116.3,8.4z M109,32.5h19.5v5.8H109V32.5z"/>
	<path class="st0" d="M135.8,8.3h6.1v37h-6.1V8.3z M138.3,24.3H151c0.8,0,1.6-0.2,2.3-0.6c0.7-0.4,1.2-1,1.5-1.8
		c0.4-0.8,0.5-1.7,0.6-2.7c0-1-0.2-1.9-0.5-2.6c-0.4-0.8-0.9-1.4-1.5-1.8c-0.7-0.4-1.4-0.6-2.3-0.6h-12.7V8.3h12.9
		c2.1,0,3.9,0.4,5.5,1.3c1.6,0.9,2.8,2.2,3.7,3.8c0.9,1.6,1.3,3.5,1.3,5.7c0,2.2-0.4,4.1-1.3,5.7c-0.9,1.6-2.1,2.9-3.7,3.8
		c-1.6,0.9-3.4,1.3-5.5,1.3h-12.9V24.3z M147.2,28.9l6.3-1.2l9.7,17.6h-7.3L147.2,28.9z"/>
	<path class="st0" d="M165,8.4h6.1v37H165V8.4z M168.5,39.5h8.6c2.5,0,4.5-0.6,5.8-1.9c1.4-1.3,2.1-3,2.1-5.3V21.4
		c0-2.3-0.7-4.1-2.1-5.3c-1.4-1.3-3.3-1.9-5.8-1.9h-8.6V8.4h8.5c3,0,5.6,0.5,7.7,1.6c2.1,1,3.8,2.5,4.9,4.5c1.1,2,1.7,4.4,1.7,7.2
		v10.5c0,2.7-0.6,5.1-1.7,7.1s-2.7,3.5-4.9,4.6c-2.1,1.1-4.8,1.6-7.8,1.6h-8.4V39.5z"/>
	<path class="st0" d="M194.1,8.4h6.1v37h-6.1V8.4z M196.9,39.5h21.4v5.8h-21.4V39.5z"/>
	<path class="st0" d="M219.7,8.3h6.1v37h-6.1V8.3z M222.2,24.3H235c0.8,0,1.6-0.2,2.3-0.6c0.7-0.4,1.2-1,1.5-1.8
		c0.4-0.8,0.5-1.7,0.6-2.7c0-1-0.2-1.9-0.5-2.6c-0.4-0.8-0.9-1.4-1.5-1.8c-0.7-0.4-1.4-0.6-2.3-0.6h-12.7V8.3h12.9
		c2.1,0,3.9,0.4,5.5,1.3c1.6,0.9,2.8,2.2,3.7,3.8c0.9,1.6,1.3,3.5,1.3,5.7c0,2.2-0.4,4.1-1.3,5.7c-0.9,1.6-2.1,2.9-3.7,3.8
		c-1.6,0.9-3.4,1.3-5.5,1.3h-12.9V24.3z M231.1,28.9l6.3-1.2l9.7,17.6h-7.3L231.1,28.9z"/>
</g>
</svg>
